<svg width="78" height="78" viewBox="0 0 78 78" fill="none" xmlns="http://www.w3.org/2000/svg">
<rect x="1" y="1" width="76" height="76" stroke="#A39FEC" stroke-width="2"/>
<path d="M17.88 14.516C17.88 14.74 17.964 14.852 18.132 14.852H18.888C18.888 14.908 18.888 14.964 18.888 15.02C18.944 15.02 18.972 15.048 18.972 15.104C19.196 15.16 19.392 15.188 19.56 15.188C19.728 15.188 19.952 15.132 20.232 15.02C19.952 14.852 19.7 14.796 19.476 14.852C19.308 14.852 19.112 14.852 18.888 14.852C18.888 14.684 18.944 14.572 19.056 14.516C19.168 14.46 19.252 14.376 19.308 14.264H21.324L21.576 14.516C21.632 14.46 21.688 14.432 21.744 14.432C21.8 14.376 21.856 14.292 21.912 14.18H25.356C25.468 14.236 25.524 14.292 25.524 14.348C25.58 14.404 25.664 14.46 25.776 14.516C25.888 14.404 25.972 14.292 26.028 14.18H29.22L29.556 14.516L29.808 14.264C29.976 14.152 30.144 14.124 30.312 14.18C30.48 14.18 30.676 14.18 30.9 14.18C31.012 14.404 31.152 14.572 31.32 14.684C31.488 14.74 31.6 14.908 31.656 15.188C31.544 15.188 31.432 15.188 31.32 15.188C31.208 15.132 31.124 15.188 31.068 15.356C31.348 15.468 31.544 15.412 31.656 15.188C31.768 15.188 31.824 15.188 31.824 15.188C31.88 15.244 31.908 15.3 31.908 15.356C31.908 15.356 31.936 15.384 31.992 15.44C31.88 15.664 31.768 15.86 31.656 16.028C31.6 16.196 31.516 16.392 31.404 16.616C31.572 16.728 31.684 16.784 31.74 16.784C31.796 16.728 31.936 16.616 32.16 16.448C32.272 16.56 32.3 16.728 32.244 16.952C32.244 17.12 32.272 17.316 32.328 17.54L32.412 17.624C32.412 17.68 32.468 17.764 32.58 17.876C32.58 18.156 32.608 18.38 32.664 18.548L32.916 18.8C32.86 18.856 32.804 18.912 32.748 18.968C32.748 19.024 32.72 19.08 32.664 19.136C32.776 19.248 32.86 19.36 32.916 19.472C33.028 19.584 33.14 19.696 33.252 19.808V20.312L33.84 21.488V23C33.952 23.112 34.064 23.196 34.176 23.252C34.288 23.252 34.4 23.28 34.512 23.336V24.512C34.736 24.624 34.848 24.82 34.848 25.1C34.848 25.324 34.96 25.492 35.184 25.604V26.528L35.436 26.78C35.548 26.892 35.576 27.032 35.52 27.2C35.464 27.368 35.492 27.508 35.604 27.62C35.716 27.732 35.772 27.844 35.772 27.956C35.772 28.068 35.772 28.18 35.772 28.292C35.828 28.404 35.828 28.516 35.772 28.628C35.772 28.684 35.8 28.74 35.856 28.796C36.136 28.908 36.22 29.104 36.108 29.384C36.052 29.608 36.108 29.776 36.276 29.888C36.444 30 36.5 30.14 36.444 30.308C36.388 30.42 36.388 30.532 36.444 30.644C36.5 30.7 36.528 30.756 36.528 30.812C36.584 30.868 36.668 30.924 36.78 30.98V32.156C36.836 32.268 36.892 32.38 36.948 32.492C37.004 32.548 37.06 32.632 37.116 32.744L37.368 33.248L36.78 33.836C36.836 33.948 36.892 34.004 36.948 34.004C37.06 34.004 37.172 34.032 37.284 34.088C37.396 34.2 37.424 34.312 37.368 34.424C37.312 34.536 37.34 34.676 37.452 34.844C37.564 34.956 37.648 35.068 37.704 35.18C37.816 35.236 37.928 35.32 38.04 35.432V36.944C38.376 37.56 38.628 38.064 38.796 38.456H39.132C39.356 38.232 39.524 38.092 39.636 38.036V37.028C39.86 36.804 39.972 36.58 39.972 36.356C39.972 36.3 40.028 36.244 40.14 36.188C40.252 36.132 40.28 36.02 40.224 35.852C40.224 35.74 40.196 35.656 40.14 35.6C40.084 35.544 40.028 35.46 39.972 35.348V34.76C40.196 34.536 40.308 34.368 40.308 34.256C40.252 34.032 40.336 33.808 40.56 33.584C40.616 33.472 40.616 33.36 40.56 33.248C40.56 33.136 40.588 33.024 40.644 32.912C40.644 32.8 40.672 32.716 40.728 32.66C40.784 32.604 40.84 32.52 40.896 32.408C40.952 32.296 41.008 32.212 41.064 32.156C41.12 32.044 41.176 31.932 41.232 31.82V31.064C41.344 30.84 41.428 30.672 41.484 30.56C41.596 30.392 41.708 30.196 41.82 29.972V28.544C41.932 28.376 42.044 28.208 42.156 28.04C42.268 27.816 42.38 27.592 42.492 27.368V26.528L42.828 26.192V25.268C42.94 25.1 43.052 24.932 43.164 24.764C43.276 24.596 43.388 24.4 43.5 24.176V22.496V22.328C43.668 22.16 43.78 21.992 43.836 21.824C43.892 21.6 43.976 21.376 44.088 21.152C44.088 21.152 44.088 21.012 44.088 20.732C44.424 20.508 44.648 20.368 44.76 20.312V18.968C44.816 18.744 44.928 18.52 45.096 18.296C45.152 18.24 45.18 18.184 45.18 18.128C45.18 18.016 45.236 17.904 45.348 17.792V16.616C45.628 16.504 45.74 16.308 45.684 16.028C45.628 15.692 45.74 15.468 46.02 15.356C46.02 15.076 46.104 14.88 46.272 14.768C46.496 14.6 46.664 14.404 46.776 14.18H51.984C52.152 14.292 52.264 14.46 52.32 14.684C52.376 14.852 52.46 15.02 52.572 15.188C52.684 15.132 52.824 15.104 52.992 15.104C52.992 14.936 52.936 14.796 52.824 14.684C52.712 14.572 52.712 14.432 52.824 14.264L52.908 14.18H65.088C65.2 14.348 65.228 14.516 65.172 14.684C65.172 14.852 65.172 14.992 65.172 15.104C65.228 15.216 65.228 15.356 65.172 15.524C65.172 15.692 65.172 15.832 65.172 15.944C65.06 16.056 64.948 16.168 64.836 16.28C64.78 16.392 64.696 16.504 64.584 16.616V17.54C64.304 17.82 64.08 18.016 63.912 18.128V19.22C63.688 19.332 63.492 19.472 63.324 19.64V20.732C63.1 21.012 62.932 21.292 62.82 21.572C62.708 21.852 62.54 22.132 62.316 22.412V23.504C62.092 23.952 61.868 24.372 61.644 24.764C61.476 25.1 61.28 25.492 61.056 25.94V26.696C60.888 27.032 60.72 27.368 60.552 27.704C60.384 27.984 60.216 28.264 60.048 28.544V29.3C59.992 29.524 59.852 29.664 59.628 29.72C59.46 29.776 59.292 29.86 59.124 29.972V30.308C59.18 30.364 59.208 30.42 59.208 30.476C59.264 30.532 59.348 30.588 59.46 30.644C59.18 31.092 58.984 31.4 58.872 31.568C58.816 31.736 58.788 32.072 58.788 32.576L58.2 33.164V34.34C58.088 34.62 57.948 34.844 57.78 35.012C57.668 35.18 57.584 35.376 57.528 35.6C57.528 35.936 57.416 36.216 57.192 36.44C57.304 36.664 57.248 36.832 57.024 36.944C56.856 37.056 56.8 37.224 56.856 37.448C56.912 37.56 56.884 37.7 56.772 37.868C56.716 37.98 56.66 38.12 56.604 38.288C56.548 38.344 56.52 38.428 56.52 38.54C56.576 38.596 56.576 38.652 56.52 38.708C56.24 39.044 56.016 39.492 55.848 40.052C55.792 40.164 55.708 40.248 55.596 40.304C55.54 40.304 55.456 40.36 55.344 40.472C55.232 40.696 55.204 40.92 55.26 41.144C55.316 41.312 55.316 41.508 55.26 41.732C55.148 42.012 55.008 42.292 54.84 42.572C54.672 42.852 54.588 43.16 54.588 43.496C54.364 43.72 54.224 43.972 54.168 44.252C54.112 44.532 53.944 44.812 53.664 45.092V46.604C53.552 46.772 53.356 46.996 53.076 47.276V47.948C52.908 48.116 52.712 48.256 52.488 48.368C52.432 48.648 52.404 48.956 52.404 49.292C52.236 49.292 52.096 49.208 51.984 49.04C51.872 48.872 51.704 48.928 51.48 49.208V49.46C51.536 49.628 51.62 49.712 51.732 49.712V49.88C51.788 50.104 51.816 50.328 51.816 50.552C51.816 50.72 51.816 50.888 51.816 51.056L51.648 51.224C51.424 51.336 51.34 51.504 51.396 51.728C51.508 51.952 51.48 52.12 51.312 52.232C51.2 52.344 51.116 52.484 51.06 52.652C51.004 52.82 50.92 52.988 50.808 53.156V53.66C50.696 53.772 50.584 53.884 50.472 53.996C50.416 54.108 50.332 54.22 50.22 54.332V55.928C50.052 56.04 49.856 56.208 49.632 56.432C49.576 56.544 49.548 56.628 49.548 56.684C49.548 56.74 49.52 56.824 49.464 56.936C49.24 57.048 49.044 57.132 48.876 57.188C48.708 57.244 48.512 57.328 48.288 57.44V57.776C48.4 57.888 48.484 57.972 48.54 58.028C48.652 58.028 48.764 58.056 48.876 58.112C48.876 58.224 48.876 58.28 48.876 58.28C48.764 58.504 48.652 58.728 48.54 58.952C48.484 59.12 48.4 59.316 48.288 59.54V60.296C48.12 60.52 47.98 60.772 47.868 61.052C47.756 61.276 47.56 61.472 47.28 61.64V62.564C46.776 63.124 46.272 63.6 45.768 63.992H31.908C31.74 63.88 31.572 63.824 31.404 63.824C31.292 63.768 31.152 63.684 30.984 63.572C30.984 63.46 30.984 63.348 30.984 63.236C31.04 63.124 31.04 63.04 30.984 62.984C30.816 62.816 30.704 62.648 30.648 62.48C30.648 62.256 30.564 62.088 30.396 61.976V60.8C30.396 60.744 30.368 60.688 30.312 60.632C29.976 60.408 29.752 60.128 29.64 59.792C29.584 59.4 29.416 59.064 29.136 58.784V57.86C28.912 57.748 28.772 57.58 28.716 57.356C28.716 57.132 28.632 56.936 28.464 56.768C28.464 56.768 28.464 56.572 28.464 56.18C28.24 56.012 28.044 55.844 27.876 55.676C27.708 55.508 27.596 55.284 27.54 55.004V53.744C27.428 53.576 27.316 53.408 27.204 53.24C27.092 53.016 26.98 52.82 26.868 52.652C26.98 52.54 27.092 52.456 27.204 52.4C26.98 52.288 26.756 52.204 26.532 52.148C26.364 52.036 26.252 51.812 26.196 51.476C26.14 51.308 26.056 51.14 25.944 50.972C25.832 50.804 25.72 50.608 25.608 50.384V49.124C25.496 49.012 25.384 48.928 25.272 48.872C25.216 48.816 25.132 48.732 25.02 48.62C24.908 48.508 24.852 48.396 24.852 48.284C24.852 48.172 24.796 48.004 24.684 47.78V46.604C24.348 46.38 24.124 46.24 24.012 46.184V44.756C23.732 44.364 23.508 43.972 23.34 43.58C23.172 43.188 22.948 42.796 22.668 42.404C22.668 42.292 22.696 42.18 22.752 42.068C22.808 41.9 22.78 41.76 22.668 41.648C22.556 41.424 22.5 41.228 22.5 41.06C22.5 40.836 22.444 40.668 22.332 40.556C22.164 40.388 22.08 40.22 22.08 40.052C22.136 39.828 22.024 39.688 21.744 39.632V38.624C21.52 38.512 21.38 38.344 21.324 38.12C21.324 37.896 21.24 37.728 21.072 37.616C20.96 37.504 20.848 37.364 20.736 37.196C20.68 37.028 20.596 36.86 20.484 36.692V35.18C20.148 34.9 19.924 34.564 19.812 34.172C19.7 33.78 19.504 33.444 19.224 33.164C19.168 32.996 19.14 32.828 19.14 32.66C19.196 32.436 19.168 32.24 19.056 32.072C18.944 31.904 18.832 31.596 18.72 31.148C18.608 30.98 18.496 30.84 18.384 30.728C18.328 30.56 18.272 30.392 18.216 30.224C18.16 30 18.048 29.832 17.88 29.72C17.768 29.608 17.656 29.468 17.544 29.3V27.872C17.264 27.312 17.012 26.808 16.788 26.36C16.676 26.08 16.564 25.856 16.452 25.688C16.34 25.464 16.284 25.212 16.284 24.932C16.284 24.82 16.228 24.736 16.116 24.68C16.004 24.568 15.948 24.428 15.948 24.26C15.948 24.148 15.892 24.064 15.78 24.008C15.668 23.952 15.64 23.868 15.696 23.756C15.696 23.588 15.752 23.476 15.864 23.42C16.032 23.308 16.06 23.14 15.948 22.916C15.836 22.86 15.696 22.832 15.528 22.832C15.416 22.552 15.276 22.3 15.108 22.076C14.996 21.852 14.856 21.6 14.688 21.32V20.396C14.464 20.172 14.268 20.004 14.1 19.892V18.548C13.876 18.436 13.764 18.296 13.764 18.128C13.764 17.96 13.764 17.764 13.764 17.54C13.652 17.428 13.54 17.344 13.428 17.288C13.372 17.176 13.288 17.064 13.176 16.952C13.12 16.84 13.064 16.728 13.008 16.616C13.008 16.504 12.952 16.392 12.84 16.28V15.692C12.672 15.524 12.56 15.384 12.504 15.272V14.684C12.616 14.572 12.672 14.488 12.672 14.432C12.728 14.376 12.812 14.292 12.924 14.18H17.124C17.18 14.236 17.208 14.292 17.208 14.348C17.264 14.404 17.348 14.46 17.46 14.516H17.88ZM27.204 16.448C26.98 16.56 26.896 16.756 26.952 17.036C27.12 16.98 27.176 16.896 27.12 16.784C27.12 16.672 27.148 16.56 27.204 16.448C27.428 16.336 27.484 16.14 27.372 15.86C27.204 15.916 27.12 16 27.12 16.112C27.176 16.224 27.204 16.336 27.204 16.448ZM25.776 39.8C26 40.024 26.112 40.136 26.112 40.136C26.224 40.192 26.252 40.276 26.196 40.388C26.196 40.444 26.252 40.444 26.364 40.388C26.644 40.22 26.644 40.024 26.364 39.8C26.308 39.8 26.252 39.828 26.196 39.884C26.14 39.94 26.14 40.108 26.196 40.388H25.608C25.552 40.276 25.524 40.192 25.524 40.136C25.58 40.024 25.552 39.912 25.44 39.8C25.328 39.8 25.216 39.772 25.104 39.716C24.936 39.94 24.656 40.248 24.264 40.64L24.768 41.648C24.768 41.648 24.852 41.648 25.02 41.648C24.908 41.928 24.74 42.04 24.516 41.984C24.404 41.928 24.32 41.9 24.264 41.9C24.208 41.844 24.124 41.76 24.012 41.648V42.32H24.768C24.88 42.32 24.936 42.404 24.936 42.572C24.992 42.684 25.076 42.684 25.188 42.572C25.244 42.404 25.272 42.236 25.272 42.068C25.272 41.9 25.16 41.76 24.936 41.648C24.992 41.424 24.992 41.228 24.936 41.06C24.88 40.836 24.936 40.612 25.104 40.388H25.608C25.496 40.612 25.58 40.724 25.86 40.724C25.972 40.724 26.056 40.696 26.112 40.64C26.168 40.528 26.056 40.248 25.776 39.8ZM22.416 37.868C22.248 37.644 22.024 37.56 21.744 37.616C21.856 37.84 21.968 37.896 22.08 37.784C22.248 37.672 22.556 37.476 23.004 37.196C22.78 37.308 22.696 37.448 22.752 37.616C22.808 37.784 22.696 37.868 22.416 37.868C22.416 37.98 22.444 38.064 22.5 38.12C22.668 38.232 22.836 38.204 23.004 38.036C23.004 37.924 22.976 37.84 22.92 37.784C22.864 37.672 22.696 37.7 22.416 37.868ZM16.032 16.448C16.144 16.616 16.228 16.728 16.284 16.784C16.34 16.784 16.536 16.756 16.872 16.7C16.928 16.588 17.068 16.42 17.292 16.196C17.18 16.196 17.096 16.196 17.04 16.196C16.984 16.14 16.9 16.112 16.788 16.112C16.732 16.168 16.676 16.224 16.62 16.28C16.62 16.336 16.564 16.392 16.452 16.448C16.284 16.448 16.088 16.476 15.864 16.532C15.976 16.364 16.06 16.224 16.116 16.112C16.172 16 16.256 15.888 16.368 15.776C16.256 15.664 16.2 15.58 16.2 15.524C15.92 15.692 15.64 15.832 15.36 15.944C15.584 16.168 15.808 16.336 16.032 16.448ZM52.404 16.448H52.236C52.124 16.56 52.068 16.672 52.068 16.784C52.124 16.896 52.124 17.008 52.068 17.12C52.068 17.232 51.984 17.344 51.816 17.456C51.704 17.568 51.704 17.68 51.816 17.792C51.816 17.904 51.872 17.96 51.984 17.96C52.096 17.904 52.152 17.848 52.152 17.792C52.208 17.736 52.292 17.652 52.404 17.54V16.448C52.684 16.448 52.908 16.42 53.076 16.364C53.02 16.252 52.992 16.056 52.992 15.776C52.88 15.776 52.768 15.804 52.656 15.86C52.6 15.86 52.516 15.86 52.404 15.86V16.448ZM32.58 42.992C32.58 42.656 32.384 42.432 31.992 42.32V41.648C31.656 41.648 31.46 41.676 31.404 41.732C31.348 41.62 31.292 41.536 31.236 41.48C31.236 41.368 31.18 41.368 31.068 41.48C31.18 41.592 31.264 41.648 31.32 41.648C31.264 41.872 31.152 42.04 30.984 42.152C30.872 42.264 30.788 42.376 30.732 42.488C30.732 42.712 30.704 42.908 30.648 43.076C30.648 43.244 30.732 43.412 30.9 43.58C31.068 43.58 31.18 43.552 31.236 43.496C31.348 43.328 31.376 43.132 31.32 42.908C31.264 42.684 31.32 42.488 31.488 42.32H31.992V44.336C31.992 44.28 32.048 44.364 32.16 44.588C32.216 44.532 32.272 44.504 32.328 44.504C32.384 44.504 32.468 44.476 32.58 44.42V43.916C32.804 43.916 32.916 43.776 32.916 43.496C32.916 43.384 32.916 43.272 32.916 43.16C32.972 43.048 32.86 42.992 32.58 42.992ZM27.456 37.784C27.512 37.896 27.54 38.008 27.54 38.12C27.596 38.176 27.68 38.148 27.792 38.036C27.68 37.924 27.596 37.868 27.54 37.868C27.484 37.756 27.428 37.672 27.372 37.616C27.316 37.56 27.26 37.476 27.204 37.364V36.608C27.316 36.552 27.4 36.496 27.456 36.44C27.568 36.328 27.68 36.216 27.792 36.104C27.68 35.992 27.54 35.964 27.372 36.02C27.26 36.02 27.12 35.992 26.952 35.936C26.952 36.048 26.868 36.132 26.7 36.188C26.532 36.244 26.476 36.384 26.532 36.608L26.784 37.112C26.448 37.336 26.42 37.588 26.7 37.868C27.036 37.868 27.288 37.84 27.456 37.784ZM29.388 33.248C29.332 33.36 29.276 33.444 29.22 33.5C29.164 33.5 29.136 33.528 29.136 33.584C29.136 33.808 29.024 33.976 28.8 34.088C28.744 34.2 28.688 34.284 28.632 34.34C28.576 34.34 28.52 34.396 28.464 34.508V35.096C28.408 35.208 28.352 35.292 28.296 35.348C28.296 35.348 28.268 35.404 28.212 35.516C28.268 35.572 28.408 35.6 28.632 35.6C28.856 35.264 29.108 34.956 29.388 34.676V33.332C29.5 33.332 29.612 33.304 29.724 33.248C29.724 33.08 29.724 32.912 29.724 32.744C29.724 32.52 29.668 32.268 29.556 31.988C29.444 32.268 29.388 32.52 29.388 32.744C29.444 32.912 29.444 33.08 29.388 33.248ZM33.252 45.512C33.14 45.568 33.056 45.54 33 45.428C32.944 45.316 32.86 45.232 32.748 45.176C32.524 45.4 32.384 45.568 32.328 45.68C32.328 45.792 32.328 45.904 32.328 46.016C32.384 46.128 32.356 46.212 32.244 46.268C32.076 46.38 31.964 46.548 31.908 46.772C31.908 46.996 31.824 47.164 31.656 47.276V48.536C31.712 48.592 31.74 48.648 31.74 48.704C31.796 48.76 31.88 48.816 31.992 48.872C31.88 48.984 31.768 49.096 31.656 49.208C31.6 49.32 31.488 49.348 31.32 49.292C31.264 49.124 31.068 48.928 30.732 48.704C30.676 48.704 30.62 48.732 30.564 48.788C30.508 48.788 30.452 48.788 30.396 48.788V49.292C30.844 49.292 31.152 49.32 31.32 49.376V49.796C31.04 49.908 30.788 50.048 30.564 50.216C30.34 50.384 30.06 50.384 29.724 50.216V48.284C29.556 48.06 29.388 47.892 29.22 47.78C29.052 47.612 28.856 47.388 28.632 47.108C28.912 47.22 29.136 47.192 29.304 47.024C29.472 46.856 29.612 46.716 29.724 46.604C29.892 46.492 30.06 46.408 30.228 46.352C30.452 46.296 30.62 46.128 30.732 45.848C30.676 45.792 30.648 45.736 30.648 45.68C30.648 45.568 30.592 45.428 30.48 45.26C30.368 45.484 30.256 45.68 30.144 45.848C30.088 45.96 30.004 46.072 29.892 46.184C29.78 46.184 29.668 46.184 29.556 46.184C29.444 46.128 29.332 46.1 29.22 46.1L28.968 45.848C28.856 45.96 28.744 46.044 28.632 46.1C28.576 46.1 28.492 46.128 28.38 46.184C28.156 46.016 28.016 45.932 27.96 45.932C27.96 45.876 27.932 45.876 27.876 45.932C27.876 46.1 27.848 46.268 27.792 46.436C27.736 46.548 27.792 46.66 27.96 46.772H28.296L28.464 46.94C28.52 47.276 28.52 47.612 28.464 47.948C28.408 48.284 28.436 48.62 28.548 48.956L29.136 49.544C29.024 49.6 28.94 49.628 28.884 49.628C28.828 49.628 28.744 49.656 28.632 49.712C28.408 49.488 28.184 49.264 27.96 49.04C27.792 48.816 27.568 48.564 27.288 48.284C27.232 48.452 27.204 48.62 27.204 48.788C27.316 48.956 27.428 49.096 27.54 49.208C27.652 49.32 27.764 49.488 27.876 49.712C27.932 49.88 28.044 50.048 28.212 50.216C28.38 50.328 28.52 50.468 28.632 50.636C28.688 50.692 28.716 50.748 28.716 50.804C28.716 50.804 28.744 50.832 28.8 50.888C28.8 51.056 28.772 51.224 28.716 51.392C28.716 51.56 28.772 51.7 28.884 51.812L28.968 51.896C29.08 51.84 29.164 51.812 29.22 51.812C29.276 51.812 29.332 51.784 29.388 51.728C29.668 51.616 29.836 51.56 29.892 51.56C29.948 51.56 30.116 51.616 30.396 51.728C30.508 51.84 30.62 51.896 30.732 51.896C30.9 51.84 31.04 51.84 31.152 51.896C31.264 51.84 31.348 51.784 31.404 51.728C31.46 51.672 31.544 51.616 31.656 51.56C31.768 51.616 31.852 51.672 31.908 51.728C32.02 51.784 32.132 51.84 32.244 51.896C32.58 51.84 32.776 51.672 32.832 51.392C32.888 51.112 33.028 50.916 33.252 50.804V49.544C33.196 49.432 33.14 49.376 33.084 49.376C33.028 49.32 32.972 49.236 32.916 49.124V48.62C32.804 48.62 32.58 48.508 32.244 48.284L32.748 47.78C32.86 47.556 32.944 47.388 33 47.276C33.056 47.108 33.14 46.968 33.252 46.856V45.596C33.476 45.484 33.644 45.344 33.756 45.176C33.868 45.008 34.008 44.84 34.176 44.672C34.12 44.56 34.12 44.448 34.176 44.336C34.232 44.224 34.204 44.112 34.092 44C33.98 43.944 33.84 43.916 33.672 43.916C33.504 43.86 33.364 43.916 33.252 44.084V45.512ZM47.028 46.1C47.588 45.932 48.12 45.568 48.624 45.008V44.336C48.736 44.224 48.876 44.14 49.044 44.084C49.212 43.972 49.38 43.86 49.548 43.748C49.436 43.636 49.296 43.608 49.128 43.664C49.016 43.664 48.876 43.636 48.708 43.58C48.54 43.804 48.372 44 48.204 44.168C48.036 44.336 47.896 44.56 47.784 44.84H47.28C47.504 45.12 47.476 45.344 47.196 45.512C46.916 45.624 46.86 45.82 47.028 46.1ZM30.06 41.228C30.06 40.948 30.06 40.752 30.06 40.64C30.116 40.528 30.116 40.416 30.06 40.304C29.948 40.136 29.836 39.94 29.724 39.716C29.668 39.492 29.528 39.324 29.304 39.212C29.136 39.324 28.968 39.436 28.8 39.548C28.688 39.66 28.576 39.772 28.464 39.884V40.892L28.548 40.976C28.66 40.92 28.716 40.892 28.716 40.892C28.772 40.836 28.856 40.78 28.968 40.724C29.08 40.78 29.192 40.78 29.304 40.724C29.416 40.668 29.528 40.696 29.64 40.808L30.06 41.228ZM50.472 32.828C50.584 32.94 50.668 33.08 50.724 33.248C50.836 33.36 51.004 33.388 51.228 33.332C51.34 33.22 51.452 33.136 51.564 33.08C51.732 33.024 51.816 32.884 51.816 32.66C51.592 32.324 51.368 32.128 51.144 32.072C50.864 32.128 50.64 32.38 50.472 32.828ZM44.676 56.096C44.34 55.984 44.144 56.04 44.088 56.264C44.088 56.432 44.032 56.572 43.92 56.684C43.808 56.572 43.696 56.46 43.584 56.348C43.472 56.236 43.332 56.32 43.164 56.6C43.276 56.656 43.444 56.796 43.668 57.02H44.592L45.096 56.516L44.676 56.096ZM30.144 35.348C30.536 34.956 30.816 34.648 30.984 34.424V33.836C30.984 33.78 30.956 33.752 30.9 33.752C30.9 33.752 30.9 33.724 30.9 33.668C30.676 33.78 30.536 33.948 30.48 34.172C30.424 34.34 30.34 34.48 30.228 34.592C30.116 34.648 30.032 34.676 29.976 34.676C29.92 34.676 29.836 34.704 29.724 34.76V35.096C29.836 35.152 29.892 35.208 29.892 35.264C29.948 35.264 30.032 35.292 30.144 35.348ZM50.22 35.6H50.724C51.116 35.376 51.368 35.208 51.48 35.096C51.424 34.984 51.396 34.9 51.396 34.844C51.396 34.788 51.368 34.732 51.312 34.676H50.892C50.724 34.788 50.584 34.872 50.472 34.928C50.36 34.984 50.248 35.04 50.136 35.096C50.192 35.264 50.22 35.432 50.22 35.6ZM48.288 17.036V16.952C48.176 16.728 48.092 16.56 48.036 16.448C47.98 16.28 47.896 16.14 47.784 16.028C47.672 16.084 47.56 16.14 47.448 16.196C47.336 16.252 47.308 16.28 47.364 16.28C47.364 16.448 47.308 16.588 47.196 16.7C47.14 16.756 47.084 16.84 47.028 16.952C47.028 17.008 47.056 17.036 47.112 17.036H48.288ZM45.852 45.512C45.74 45.68 45.6 45.764 45.432 45.764C45.32 45.764 45.208 45.82 45.096 45.932C45.096 46.212 45.124 46.436 45.18 46.604C45.348 46.492 45.488 46.408 45.6 46.352C45.768 46.296 45.908 46.24 46.02 46.184C46.132 46.128 46.244 46.044 46.356 45.932C46.468 45.876 46.524 45.848 46.524 45.848C46.524 45.792 46.552 45.736 46.608 45.68C46.496 45.568 46.356 45.54 46.188 45.596C46.076 45.596 45.964 45.568 45.852 45.512ZM25.944 15.692C25.888 15.58 25.86 15.384 25.86 15.104C25.748 15.16 25.636 15.188 25.524 15.188C25.412 15.188 25.3 15.216 25.188 15.272C25.468 15.44 25.608 15.664 25.608 15.944C25.664 16.168 25.832 16.336 26.112 16.448C26.392 16.448 26.532 16.28 26.532 15.944C26.308 15.832 26.112 15.748 25.944 15.692ZM25.944 46.94C26.056 47.052 26.112 47.192 26.112 47.36C26.168 47.472 26.252 47.584 26.364 47.696C26.476 47.696 26.588 47.724 26.7 47.78C26.868 47.78 27.008 47.724 27.12 47.612C27.12 47.5 27.064 47.416 26.952 47.36C26.84 47.304 26.756 47.22 26.7 47.108C26.644 46.996 26.588 46.884 26.532 46.772C26.476 46.66 26.42 46.548 26.364 46.436C26.14 46.66 26 46.828 25.944 46.94ZM54.504 16.112L54 16.616C54.056 16.728 54.056 16.868 54 17.036C53.944 17.148 53.972 17.26 54.084 17.372C54.252 17.26 54.392 17.176 54.504 17.12C54.672 17.064 54.84 17.008 55.008 16.952V16.616C54.896 16.504 54.812 16.42 54.756 16.364C54.7 16.308 54.616 16.224 54.504 16.112ZM38.88 58.28C38.768 58.392 38.684 58.476 38.628 58.532C38.572 58.532 38.488 58.588 38.376 58.7C38.264 58.588 38.096 58.476 37.872 58.364C37.76 58.42 37.592 58.56 37.368 58.784C37.592 58.84 37.872 58.98 38.208 59.204C38.32 59.092 38.432 59.008 38.544 58.952C38.656 58.896 38.74 58.868 38.796 58.868C38.908 58.868 38.992 58.784 39.048 58.616C39.048 58.616 38.992 58.504 38.88 58.28ZM45.852 22.16L46.02 22.328C45.908 22.384 45.796 22.44 45.684 22.496C45.572 22.552 45.46 22.608 45.348 22.664C45.404 22.776 45.432 22.86 45.432 22.916C45.488 22.972 45.516 23.056 45.516 23.168C45.684 23.112 45.824 23.112 45.936 23.168C46.048 23.168 46.16 23.112 46.272 23C46.328 22.888 46.356 22.748 46.356 22.58C46.412 22.412 46.356 22.272 46.188 22.16H45.852ZM62.316 17.204C61.98 16.98 61.644 17.008 61.308 17.288C61.42 17.4 61.448 17.512 61.392 17.624C61.336 17.736 61.364 17.848 61.476 17.96C61.756 18.072 61.924 18.072 61.98 17.96C62.092 17.792 62.204 17.652 62.316 17.54V17.204ZM28.716 38.204C28.772 38.316 28.8 38.428 28.8 38.54C28.8 38.652 28.828 38.764 28.884 38.876C28.996 38.764 29.136 38.736 29.304 38.792C29.472 38.848 29.612 38.792 29.724 38.624C29.724 38.456 29.696 38.316 29.64 38.204H28.716ZM40.728 39.212C40.672 39.268 40.644 39.296 40.644 39.296C40.644 39.408 40.7 39.576 40.812 39.8C40.924 40.024 41.036 40.192 41.148 40.304C41.204 40.192 41.232 40.08 41.232 39.968C41.288 39.8 41.4 39.66 41.568 39.548C41.4 39.492 41.232 39.436 41.064 39.38C40.952 39.324 40.84 39.268 40.728 39.212ZM36.276 60.212C36.164 60.324 36.052 60.408 35.94 60.464C35.884 60.52 35.856 60.604 35.856 60.716C36.136 60.884 36.444 60.884 36.78 60.716C36.78 60.604 36.752 60.52 36.696 60.464C36.696 60.408 36.696 60.324 36.696 60.212H36.276ZM36.78 37.784C36.892 37.672 37.004 37.616 37.116 37.616C37.228 37.56 37.34 37.476 37.452 37.364C37.396 37.252 37.34 37.168 37.284 37.112C37.284 37.056 37.284 36.972 37.284 36.86C37.172 36.86 37.088 36.888 37.032 36.944C36.976 36.944 36.892 36.944 36.78 36.944C36.78 37.112 36.752 37.28 36.696 37.448C36.64 37.56 36.668 37.672 36.78 37.784ZM46.776 43.244C46.72 43.356 46.664 43.468 46.608 43.58C46.552 43.636 46.496 43.72 46.44 43.832C46.72 44 47.028 43.972 47.364 43.748C47.308 43.636 47.28 43.496 47.28 43.328C47.168 43.328 47.084 43.328 47.028 43.328C46.972 43.272 46.888 43.244 46.776 43.244ZM35.94 36.188C35.884 36.3 35.856 36.384 35.856 36.44C35.856 36.496 35.828 36.552 35.772 36.608C35.828 36.72 35.856 36.776 35.856 36.776L36.276 37.196C36.388 37.084 36.444 36.972 36.444 36.86C36.444 36.748 36.416 36.692 36.36 36.692C36.304 36.58 36.164 36.412 35.94 36.188ZM50.976 30.56C50.864 30.672 50.78 30.812 50.724 30.98C50.724 31.092 50.64 31.204 50.472 31.316C50.472 31.316 50.528 31.372 50.64 31.484C50.752 31.428 50.836 31.4 50.892 31.4C50.948 31.4 51.032 31.372 51.144 31.316C51.088 31.204 51.06 31.092 51.06 30.98C51.116 30.812 51.088 30.672 50.976 30.56ZM58.2 27.872C58.144 27.704 58.116 27.508 58.116 27.284C58.004 27.284 57.892 27.312 57.78 27.368C57.724 27.368 57.64 27.368 57.528 27.368C57.528 27.648 57.556 27.816 57.612 27.872H58.2ZM32.916 51.896V52.232C32.916 52.288 32.972 52.372 33.084 52.484C33.14 52.428 33.196 52.4 33.252 52.4C33.308 52.288 33.42 52.148 33.588 51.98C33.476 51.98 33.364 51.98 33.252 51.98C33.196 51.924 33.084 51.896 32.916 51.896ZM27.456 52.4C27.792 52.624 28.016 52.624 28.128 52.4C28.128 52.12 28.072 51.98 27.96 51.98C27.848 52.036 27.68 52.176 27.456 52.4ZM27.204 42.488C26.98 42.264 26.756 42.264 26.532 42.488C26.532 42.544 26.532 42.6 26.532 42.656C26.588 42.712 26.616 42.796 26.616 42.908C26.728 42.796 26.812 42.74 26.868 42.74C26.98 42.684 27.092 42.6 27.204 42.488ZM50.64 42.152C50.192 42.04 49.94 42.012 49.884 42.068C49.828 42.068 49.744 42.124 49.632 42.236C49.856 42.404 50.192 42.376 50.64 42.152ZM45.768 42.74C46.104 42.404 46.272 42.18 46.272 42.068C46.048 41.956 45.852 41.984 45.684 42.152C45.74 42.264 45.768 42.46 45.768 42.74ZM27.624 43.328C27.904 43.048 27.904 42.824 27.624 42.656C27.568 42.768 27.484 42.852 27.372 42.908C27.26 42.964 27.204 43.076 27.204 43.244C27.428 43.244 27.568 43.272 27.624 43.328ZM53.16 38.12C53.272 37.84 53.384 37.672 53.496 37.616C53.608 37.56 53.664 37.448 53.664 37.28C53.44 37.112 53.244 37.14 53.076 37.364C53.076 37.588 53.104 37.84 53.16 38.12ZM33.336 36.272C33.224 35.88 33.168 35.684 33.168 35.684C33.056 35.684 32.944 35.74 32.832 35.852C32.776 35.908 32.692 35.992 32.58 36.104C32.804 36.216 33.056 36.272 33.336 36.272ZM47.112 18.38C47.336 18.156 47.336 17.932 47.112 17.708C47.056 17.708 46.972 17.708 46.86 17.708C46.804 17.708 46.748 17.792 46.692 17.96C46.86 18.072 47 18.212 47.112 18.38ZM44.256 52.904C44.088 53.072 44.088 53.268 44.256 53.492C44.48 53.268 44.48 53.072 44.256 52.904ZM48.54 54.752V54.5H48.12C48.064 54.556 48.036 54.584 48.036 54.584C48.036 54.696 48.064 54.752 48.12 54.752H48.54ZM31.572 17.12H31.404C31.404 17.232 31.376 17.316 31.32 17.372C31.32 17.428 31.32 17.484 31.32 17.54C31.32 17.596 31.32 17.652 31.32 17.708C31.376 17.708 31.404 17.68 31.404 17.624C31.572 17.624 31.656 17.596 31.656 17.54C31.656 17.428 31.628 17.372 31.572 17.372C31.572 17.316 31.572 17.232 31.572 17.12ZM51.648 19.64C51.816 19.416 51.816 19.192 51.648 18.968C51.424 19.192 51.424 19.416 51.648 19.64ZM30.732 15.356C30.396 15.132 30.172 15.132 30.06 15.356C30.284 15.524 30.508 15.524 30.732 15.356ZM22.668 36.692C23.004 36.916 23.228 36.916 23.34 36.692C23.116 36.524 22.892 36.524 22.668 36.692ZM49.548 36.608C49.548 36.72 49.576 36.804 49.632 36.86H50.052L50.136 36.776C50.136 36.664 50.08 36.608 49.968 36.608H49.548ZM29.556 37.196C29.388 37.42 29.388 37.644 29.556 37.868C29.78 37.644 29.78 37.42 29.556 37.196ZM43.836 40.892C43.5 40.668 43.276 40.668 43.164 40.892C43.388 41.06 43.612 41.06 43.836 40.892ZM47.112 41.648C47.392 41.48 47.392 41.284 47.112 41.06C46.888 41.284 46.888 41.48 47.112 41.648ZM51.9 41.648C52.18 41.48 52.18 41.284 51.9 41.06C51.676 41.284 51.676 41.48 51.9 41.648ZM34.596 39.716H34.764C34.82 39.604 34.848 39.464 34.848 39.296C34.792 39.24 34.764 39.212 34.764 39.212C34.596 39.212 34.512 39.24 34.512 39.296C34.512 39.408 34.512 39.492 34.512 39.548C34.568 39.548 34.596 39.604 34.596 39.716ZM48.876 40.136H48.624V40.556L48.708 40.64C48.82 40.584 48.876 40.556 48.876 40.556V40.136ZM26.28 24.512V24.68C26.392 24.68 26.448 24.708 26.448 24.764C26.504 24.764 26.588 24.764 26.7 24.764C26.756 24.708 26.784 24.652 26.784 24.596L26.7 24.428C26.476 24.428 26.336 24.456 26.28 24.512ZM48.54 25.772H48.288V26.192L48.372 26.276C48.484 26.22 48.54 26.192 48.54 26.192V25.772ZM28.128 23.336C27.96 23.056 27.736 23.056 27.456 23.336C27.736 23.504 27.96 23.504 28.128 23.336ZM48.624 27.536H48.876V27.116L48.792 27.032C48.68 27.088 48.624 27.116 48.624 27.116V27.536ZM53.328 45.848H53.076V46.352L53.16 46.436C53.272 46.324 53.328 46.268 53.328 46.268C53.328 46.268 53.328 46.128 53.328 45.848ZM39.972 54.332C39.86 54.22 39.804 54.164 39.804 54.164C39.804 54.164 39.748 54.22 39.636 54.332L39.72 54.416C39.776 54.416 39.804 54.416 39.804 54.416C39.86 54.36 39.916 54.332 39.972 54.332ZM48.96 43.076C49.016 43.188 49.044 43.244 49.044 43.244C49.1 43.244 49.128 43.244 49.128 43.244C49.184 43.188 49.184 43.16 49.128 43.16C49.128 43.048 49.1 42.992 49.044 42.992C48.988 42.992 48.96 43.02 48.96 43.076ZM43.752 29.3C43.696 29.244 43.668 29.216 43.668 29.216C43.612 29.272 43.584 29.328 43.584 29.384C43.584 29.384 43.556 29.412 43.5 29.468C43.556 29.468 43.612 29.496 43.668 29.552C43.668 29.44 43.696 29.356 43.752 29.3ZM33.588 43.412C33.532 43.412 33.504 43.412 33.504 43.412C33.504 43.356 33.476 43.328 33.42 43.328C33.364 43.384 33.308 43.412 33.252 43.412C33.308 43.468 33.336 43.496 33.336 43.496C33.448 43.496 33.532 43.468 33.588 43.412ZM43.164 43.412C43.108 43.356 43.08 43.328 43.08 43.328C43.024 43.328 42.968 43.356 42.912 43.412C42.912 43.412 42.884 43.412 42.828 43.412L42.912 43.496C43.024 43.496 43.108 43.468 43.164 43.412ZM35.436 32.324C35.436 32.268 35.408 32.24 35.352 32.24C35.352 32.184 35.352 32.128 35.352 32.072C35.296 32.128 35.268 32.156 35.268 32.156C35.268 32.268 35.296 32.352 35.352 32.408C35.352 32.352 35.38 32.324 35.436 32.324ZM25.944 43.832C26 43.888 26.028 43.916 26.028 43.916C26.084 43.86 26.112 43.776 26.112 43.664C26.112 43.664 26.084 43.636 26.028 43.58C26.028 43.692 26 43.776 25.944 43.832ZM54.168 24.764L54.084 24.848C54.084 24.904 54.084 24.96 54.084 25.016C54.14 25.016 54.168 25.044 54.168 25.1C54.168 25.044 54.168 25.016 54.168 25.016C54.224 25.016 54.252 24.988 54.252 24.932C54.252 24.876 54.224 24.848 54.168 24.848C54.168 24.848 54.168 24.82 54.168 24.764ZM23.004 25.268C22.892 25.156 22.836 25.1 22.836 25.1C22.78 25.1 22.752 25.128 22.752 25.184C22.808 25.296 22.836 25.352 22.836 25.352C22.892 25.352 22.948 25.324 23.004 25.268ZM34.764 41.9C34.764 41.788 34.736 41.704 34.68 41.648C34.68 41.704 34.652 41.732 34.596 41.732C34.596 41.732 34.596 41.76 34.596 41.816C34.596 41.872 34.596 41.9 34.596 41.9C34.652 41.9 34.68 41.928 34.68 41.984C34.736 41.928 34.764 41.9 34.764 41.9ZM28.044 38.624C28.044 38.568 28.016 38.512 27.96 38.456C27.96 38.512 27.932 38.568 27.876 38.624C27.876 38.624 27.876 38.652 27.876 38.708L27.96 38.792C28.016 38.736 28.044 38.68 28.044 38.624ZM45.012 59.708C45.012 59.652 44.984 59.624 44.928 59.624C44.928 59.624 44.928 59.596 44.928 59.54C44.872 59.596 44.844 59.68 44.844 59.792C44.844 59.848 44.872 59.876 44.928 59.876C44.928 59.82 44.928 59.792 44.928 59.792C44.984 59.792 45.012 59.764 45.012 59.708ZM46.356 40.22C46.3 40.164 46.272 40.136 46.272 40.136C46.216 40.136 46.16 40.164 46.104 40.22C46.104 40.22 46.076 40.22 46.02 40.22L46.104 40.304C46.216 40.304 46.3 40.276 46.356 40.22ZM31.992 35.684C32.048 35.74 32.076 35.796 32.076 35.852C32.076 35.852 32.104 35.88 32.16 35.936C32.216 35.88 32.244 35.852 32.244 35.852C32.244 35.796 32.216 35.768 32.16 35.768C32.16 35.712 32.16 35.656 32.16 35.6C32.104 35.6 32.076 35.628 32.076 35.684C32.076 35.684 32.048 35.684 31.992 35.684ZM54.588 33.836C54.588 33.78 54.56 33.752 54.504 33.752C54.504 33.752 54.504 33.724 54.504 33.668C54.448 33.724 54.42 33.808 54.42 33.92C54.42 33.976 54.448 34.004 54.504 34.004C54.56 33.892 54.588 33.836 54.588 33.836ZM47.868 37.868C47.812 37.924 47.756 37.952 47.7 37.952C47.7 37.952 47.672 37.98 47.616 38.036L47.7 38.12C47.756 38.12 47.784 38.12 47.784 38.12C47.84 38.064 47.896 38.036 47.952 38.036C47.952 37.98 47.924 37.952 47.868 37.952C47.868 37.952 47.868 37.924 47.868 37.868ZM30.9 37.868C30.788 37.98 30.732 38.036 30.732 38.036C30.732 38.092 30.76 38.12 30.816 38.12C30.872 38.12 30.9 38.12 30.9 38.12C30.9 38.064 30.928 38.036 30.984 38.036C30.984 37.98 30.956 37.952 30.9 37.952C30.9 37.952 30.9 37.924 30.9 37.868ZM46.356 36.356C46.468 36.468 46.524 36.524 46.524 36.524C46.58 36.524 46.608 36.496 46.608 36.44C46.608 36.384 46.58 36.356 46.524 36.356C46.524 36.356 46.524 36.328 46.524 36.272C46.468 36.272 46.44 36.3 46.44 36.356C46.44 36.356 46.412 36.356 46.356 36.356ZM26.784 14.852C26.728 14.908 26.672 14.936 26.616 14.936C26.616 14.936 26.588 14.964 26.532 15.02L26.616 15.104C26.672 15.104 26.7 15.104 26.7 15.104C26.756 15.048 26.812 15.02 26.868 15.02C26.812 14.964 26.784 14.908 26.784 14.852ZM16.452 14.852L16.284 15.02C16.34 15.02 16.368 15.048 16.368 15.104C16.424 15.104 16.48 15.104 16.536 15.104L16.62 15.02L16.452 14.852ZM44.676 46.1C44.676 46.044 44.704 46.016 44.76 46.016C44.704 45.96 44.648 45.932 44.592 45.932C44.592 45.932 44.564 45.904 44.508 45.848C44.452 45.904 44.424 45.96 44.424 46.016C44.48 46.016 44.508 46.044 44.508 46.1C44.564 46.1 44.62 46.1 44.676 46.1ZM55.092 15.188L55.008 15.272C55.064 15.328 55.092 15.412 55.092 15.524L55.26 15.356L55.092 15.188ZM52.32 46.856C52.264 46.856 52.208 46.884 52.152 46.94C52.152 46.94 52.124 46.94 52.068 46.94C52.124 46.996 52.18 47.024 52.236 47.024C52.292 47.024 52.348 46.996 52.404 46.94L52.32 46.856ZM30.732 19.388C30.732 19.444 30.732 19.5 30.732 19.556C30.788 19.556 30.816 19.584 30.816 19.64C30.928 19.584 30.984 19.556 30.984 19.556C30.928 19.5 30.9 19.472 30.9 19.472C30.9 19.416 30.872 19.36 30.816 19.304C30.816 19.36 30.788 19.388 30.732 19.388ZM26.532 45.344L26.364 45.176C26.364 45.232 26.336 45.288 26.28 45.344C26.28 45.344 26.28 45.372 26.28 45.428C26.336 45.428 26.364 45.456 26.364 45.512C26.476 45.4 26.532 45.344 26.532 45.344ZM19.728 16.448C19.672 16.504 19.616 16.532 19.56 16.532C19.56 16.532 19.532 16.56 19.476 16.616C19.532 16.616 19.56 16.644 19.56 16.7C19.56 16.7 19.588 16.7 19.644 16.7C19.7 16.7 19.728 16.7 19.728 16.7C19.728 16.644 19.756 16.616 19.812 16.616C19.812 16.56 19.784 16.532 19.728 16.532C19.728 16.532 19.728 16.504 19.728 16.448ZM14.604 17.036C14.604 16.98 14.604 16.952 14.604 16.952C14.66 16.952 14.688 16.924 14.688 16.868C14.632 16.868 14.576 16.84 14.52 16.784C14.464 16.84 14.408 16.868 14.352 16.868C14.464 16.98 14.548 17.036 14.604 17.036ZM46.524 16.196C46.468 16.252 46.412 16.28 46.356 16.28L46.44 16.364C46.496 16.364 46.524 16.364 46.524 16.364C46.58 16.308 46.636 16.28 46.692 16.28C46.636 16.28 46.608 16.28 46.608 16.28C46.608 16.224 46.58 16.196 46.524 16.196ZM17.796 14.516C17.908 14.46 18.02 14.376 18.132 14.264C18.244 14.432 18.132 14.516 17.796 14.516ZM29.22 50.048C29.332 50.104 29.388 50.132 29.388 50.132C29.332 50.188 29.304 50.216 29.304 50.216C29.192 50.216 29.108 50.188 29.052 50.132C29.108 50.132 29.136 50.132 29.136 50.132C29.136 50.076 29.164 50.048 29.22 50.048ZM28.716 40.22C28.996 40.052 29.22 40.052 29.388 40.22C29.276 40.444 29.052 40.444 28.716 40.22ZM33.84 44.336C33.84 44.392 33.812 44.448 33.756 44.504C33.756 44.504 33.756 44.532 33.756 44.588C33.644 44.476 33.588 44.42 33.588 44.42L33.756 44.252L33.84 44.336ZM32.58 42.992V43.916C32.356 43.916 32.244 43.86 32.244 43.748C32.3 43.58 32.328 43.44 32.328 43.328C32.328 43.048 32.412 42.936 32.58 42.992Z" fill="#928DEA"/>
</svg>
